# xmcd
#
# Track frame offsets: 
#        150
#        23944
#        43738
#        64329
#        83149
#        101891
#        121270
#        146899
#        165028
#        187833
#        209190
#        232002
#        250273
#        277377
#        298128
#        313853
#        333560
#
# Disc length: 4744 seconds
#
# Revision: 0
# Processed by: cddbd v1.4PL0 Copyright (c) Steve Scherf et al.
# Submitted via: ExactAudioCopy v0.90b4
#
DISCID=11128611
DTITLE=刘若英 - 似水年华
DYEAR=2003
DGENRE=Pop
TTITLE0=明年此时（电视剧《似水年华》片尾曲）
TTITLE1=大家来恋爱（电视剧《粉红女郎》主题曲）
TTITLE2=一辈子的孤单
TTITLE3=当爱在靠近
TTITLE4=说你永远都不离开我
TTITLE5=一切
TTITLE6=后来
TTITLE7=收获
TTITLE8=为爱痴狂
TTITLE9=很爱很爱你
TTITLE10=I believe
TTITLE11=人之初
TTITLE12=四月天
TTITLE13=说
TTITLE14=Love（with 梁静茹）
TTITLE15=点亮桔子树
TTITLE16=好久好久（光良合唱）
EXTD=
EXTT0=
EXTT1=
EXTT2=
EXTT3=
EXTT4=
EXTT5=
EXTT6=
EXTT7=
EXTT8=
EXTT9=
EXTT10=
EXTT11=
EXTT12=
EXTT13=
EXTT14=
EXTT15=
EXTT16=
PLAYORDER=
